<?xml version="1.0" standalone="no"?><!DOCTYPE svg PUBLIC "-//W3C//DTD SVG 1.1//EN" "http://www.w3.org/Graphics/SVG/1.1/DTD/svg11.dtd"><svg t="1779545326660" class="icon" viewBox="0 0 1024 1024" version="1.1" xmlns="http://www.w3.org/2000/svg" p-id="1280" xmlns:xlink="http://www.w3.org/1999/xlink" width="200" height="200"><path d="M252.3648 245.9136m62.208 0l388.8128 0q62.208 0 62.208 62.208l0 388.8128q0 62.208-62.208 62.208l-388.8128 0q-62.208 0-62.208-62.208l0-388.8128q0-62.208 62.208-62.208Z" fill="#CFF6FF" p-id="1281"></path><path d="M383.5392 456.448H174.08a73.1136 73.1136 0 0 1-73.1136-73.0624V174.08A73.1136 73.1136 0 0 1 174.08 100.8128h209.4592A73.1136 73.1136 0 0 1 456.6016 174.08v209.3056a73.1136 73.1136 0 0 1-73.0624 73.0624zM174.08 152.0128A21.8112 21.8112 0 0 0 152.1664 174.08v209.3056A21.8624 21.8624 0 0 0 174.08 405.248h209.4592a21.9136 21.9136 0 0 0 21.8624-21.8624V174.08a21.8624 21.8624 0 0 0-21.8624-21.8112zM383.5392 905.1136H174.08a73.1136 73.1136 0 0 1-73.0112-73.0624v-209.5104A73.1136 73.1136 0 0 1 174.08 549.4784h209.4592a73.1136 73.1136 0 0 1 73.0624 73.0624v209.5104a73.1136 73.1136 0 0 1-73.0624 73.0624zM174.08 600.6784a21.8624 21.8624 0 0 0-21.8112 21.8624v209.5104a21.8624 21.8624 0 0 0 21.8112 21.8624h209.4592a21.8624 21.8624 0 0 0 21.8624-21.8624v-209.5104a21.8624 21.8624 0 0 0-21.8624-21.8624zM844.8 456.448h-209.92a73.1136 73.1136 0 0 1-73.0624-73.0624V174.08A73.1136 73.1136 0 0 1 634.88 100.8128h209.92A73.1136 73.1136 0 0 1 917.6064 174.08v209.3056A73.1136 73.1136 0 0 1 844.8 456.448z m-209.92-304.4352a21.8624 21.8624 0 0 0-21.7088 22.0672v209.3056a21.8624 21.8624 0 0 0 21.7088 21.8624h209.92a21.8624 21.8624 0 0 0 21.8112-21.8624V174.08a21.8112 21.8112 0 0 0-21.8112-22.0672z" fill="#474747" p-id="1282"></path><path d="M740.4032 926.1056A199.68 199.68 0 0 1 554.1888 655.36a25.6 25.6 0 1 1 47.7696 18.3296 148.0704 148.0704 0 1 0 80.0256-83.1488 25.6 25.6 0 1 1-20.1728-47.0528 199.424 199.424 0 1 1 78.592 382.72z" fill="#1285EF" p-id="1283"></path></svg>